<svg xmlns="http://www.w3.org/2000/svg" viewBox="0 0 420 260"><rect width="420" height="260" rx="24" fill="#f3efe4"/><g stroke="#6d7e60" fill="none" stroke-width="4" stroke-linecap="round"><rect x="55" y="72" width="105" height="98" rx="24"/><path d="M107 50v22M85 116h.01M130 116h.01M83 145c16 10 35 10 51 0M46 105H28M169 105h21"/></g><circle cx="108" cy="50" r="6" fill="#738565"/><g font-family="KaiTi,serif" fill="#5a554b"><text x="213" y="82" font-size="22">Function Calling</text><text x="213" y="112" font-size="14">Think → Tool → Observe</text><rect x="214" y="136" width="62" height="35" rx="8" fill="#e6ece0"/><rect x="294" y="136" width="74" height="35" rx="8" fill="#f1e8d8"/><text x="231" y="159" font-size="13">Agent</text><text x="310" y="159" font-size="13">Tools</text></g><path d="M277 153h16" stroke="#968e7f" stroke-width="2"/><path d="m289 148 6 5-6 5" fill="none" stroke="#968e7f" stroke-width="2"/></svg>